# xmcd
#
# Track frame offsets:
#	150
#	13541
#	22284
#	29115
#	38352
#	48776
#	60698
#	71419
#	81623
#	89995
#
# Disc length: 1334 seconds
#
# Revision: 0
# Processed by: cddbd v1.5.2PL0 Copyright (c) Steve Scherf et al.
# Submitted via: dBpowerAMP V4.0
#
DISCID=8805340a
DTITLE=Gene Autry - Western Christmas
DYEAR=2005
DGENRE=Undefined
TTITLE0=Rudolph the Red Nosed Reindeer
TTITLE1=Frosty the Snowman
TTITLE2=Silent Night
TTITLE3=Jingle Bells
TTITLE4=Here Comes Santa Claus
TTITLE5=Up on The House Top
TTITLE6=Buone Natale
TTITLE7=Silver Bells
TTITLE8=Thirty two feet and eight Little Tails
TTITLE9=Santa Claus is Coming to Town
EXTD=This is a Gene Autry Christmas Album\n\nGene Autry Western Christmas
EXTT0=
EXTT1=
EXTT2=
EXTT3=
EXTT4=
EXTT5=
EXTT6=
EXTT7=
EXTT8=
EXTT9=
PLAYORDER=
